<svg width="50" height="50" viewBox="0 0 50 50" fill="none" xmlns="http://www.w3.org/2000/svg">
<path d="M24.9933 12.2164C17.8949 12.2164 12.1661 17.8367 12.1661 24.8008C12.1661 31.7649 17.8949 37.3852 24.9933 37.3852C32.0917 37.3852 37.8205 31.7649 37.8205 24.8008C37.8205 17.8367 32.0917 12.2164 24.9933 12.2164ZM24.9933 32.9798C20.4028 32.9798 16.6566 29.3045 16.6566 24.8008C16.6566 20.2972 20.4028 16.6219 24.9933 16.6219C29.5838 16.6219 33.33 20.2972 33.33 24.8008C33.33 29.3045 29.5838 32.9798 24.9933 32.9798ZM38.3458 8.76811C36.6885 8.76811 35.3501 10.0812 35.3501 11.7071C35.3501 13.3331 36.6885 14.6462 38.3458 14.6462C40.0031 14.6462 41.3415 13.3392 41.3415 11.7071C41.342 11.321 41.2649 10.9386 41.1145 10.5818C40.9641 10.2251 40.7435 9.90086 40.4652 9.62785C40.1869 9.35484 39.8565 9.13837 39.4928 8.99085C39.1291 8.84332 38.7393 8.76763 38.3458 8.76811ZM49.9972 24.8008C49.9972 21.4139 50.0285 18.0576 49.8346 14.6768C49.6407 10.75 48.7276 7.26486 45.8007 4.39333C42.8675 1.51566 39.3214 0.625977 35.3188 0.435768C31.8665 0.24556 28.4455 0.276239 24.9995 0.276239C21.5473 0.276239 18.1263 0.24556 14.6803 0.435768C10.6776 0.625977 7.12529 1.5218 4.19837 4.39333C1.26519 7.27099 0.358344 10.75 0.164467 14.6768C-0.0294104 18.0638 0.00186025 21.42 0.00186025 24.8008C0.00186025 28.1816 -0.0294104 31.544 0.164467 34.9248C0.358344 38.8517 1.27144 42.3368 4.19837 45.2083C7.13154 48.086 10.6776 48.9757 14.6803 49.1659C18.1325 49.3561 21.5535 49.3254 24.9995 49.3254C28.4518 49.3254 31.8728 49.3561 35.3188 49.1659C39.3214 48.9757 42.8738 48.0798 45.8007 45.2083C48.7339 42.3307 49.6407 38.8517 49.8346 34.9248C50.0347 31.544 49.9972 28.1878 49.9972 24.8008ZM44.4936 39.2689C44.037 40.3856 43.4867 41.2201 42.6049 42.0791C41.723 42.9442 40.8787 43.4842 39.7405 43.9321C36.4508 45.2145 28.6394 44.9261 24.9933 44.9261C21.3471 44.9261 13.5295 45.2145 10.2398 43.9382C9.10159 43.4903 8.25103 42.9504 7.37545 42.0852C6.49363 41.2201 5.94326 40.3918 5.48671 39.2751C4.18586 36.0415 4.4798 28.378 4.4798 24.8008C4.4798 21.2237 4.18586 13.554 5.48671 10.3266C5.94326 9.20989 6.49363 8.37543 7.37545 7.51642C8.25728 6.65742 9.10159 6.11134 10.2398 5.66343C13.5295 4.38719 21.3471 4.67557 24.9933 4.67557C28.6394 4.67557 36.4571 4.38719 39.7467 5.66343C40.885 6.11134 41.7355 6.65128 42.6111 7.51642C43.4929 8.38156 44.0433 9.20989 44.4998 10.3266C45.8007 13.554 45.5068 21.2237 45.5068 24.8008C45.5068 28.378 45.8007 36.0415 44.4936 39.2689Z" fill="white"/>
</svg>
